# xmcd CD database file
#
# Track frame offsets:
#	150
#	21751
#	50252
#
# Disc length: 968 seconds
#
# Revision: 0
# Processed by: cddbd v1.5.1PL0 Copyright (c) Steve Scherf et al.
# Submitted via: CDex 1.51
#
DISCID=1a03c603
DTITLE=空色絵本 - 星をみる
DYEAR=2002
DGENRE=Other
TTITLE0=黒い月
TTITLE1=ゆびきり
TTITLE2=星をみる
EXTD=YEAR: 2002
EXTT0=
EXTT1=
EXTT2=
PLAYORDER=
